<svg width="50" height="50" viewBox="0 0 50 50" fill="none" xmlns="http://www.w3.org/2000/svg">
<path d="M18.75 29.6875L31.25 17.1875M40.625 9.91042V45.3125L32.8125 42.1875L25 45.3125L17.1875 42.1875L9.375 45.3125V9.91042C9.375 7.60208 11.0542 5.625 13.3479 5.35833C21.09 4.45966 28.91 4.45966 36.6521 5.35833C38.9438 5.625 40.625 7.60208 40.625 9.91042ZM20.3125 18.75H20.3292V18.7667H20.3125V18.75ZM21.0938 18.75C21.0938 18.9572 21.0114 19.1559 20.8649 19.3024C20.7184 19.4489 20.5197 19.5312 20.3125 19.5312C20.1053 19.5312 19.9066 19.4489 19.7601 19.3024C19.6136 19.1559 19.5313 18.9572 19.5313 18.75C19.5313 18.5428 19.6136 18.3441 19.7601 18.1976C19.9066 18.0511 20.1053 17.9688 20.3125 17.9688C20.5197 17.9688 20.7184 18.0511 20.8649 18.1976C21.0114 18.3441 21.0938 18.5428 21.0938 18.75ZM29.6875 28.125H29.7042V28.1417H29.6875V28.125ZM30.4688 28.125C30.4688 28.3322 30.3864 28.5309 30.2399 28.6774C30.0934 28.8239 29.8947 28.9062 29.6875 28.9062C29.4803 28.9062 29.2816 28.8239 29.1351 28.6774C28.9886 28.5309 28.9063 28.3322 28.9063 28.125C28.9063 27.9178 28.9886 27.7191 29.1351 27.5726C29.2816 27.4261 29.4803 27.3438 29.6875 27.3438C29.8947 27.3438 30.0934 27.4261 30.2399 27.5726C30.3864 27.7191 30.4688 27.9178 30.4688 28.125Z" stroke="#0054A4" stroke-width="2.5" stroke-linecap="round" stroke-linejoin="round"/>
</svg>
