<svg width="50" height="50" viewBox="0 0 50 50" fill="none" xmlns="http://www.w3.org/2000/svg">
<path d="M21.875 12.5C18.7847 12.5 15.7637 13.4164 13.1942 15.1333C10.6247 16.8502 8.62201 19.2905 7.43939 22.1456C6.25677 25.0007 5.94734 28.1423 6.55024 31.1733C7.15313 34.2042 8.64127 36.9883 10.8265 39.1735C13.0117 41.3587 15.7958 42.8469 18.8267 43.4498C21.8577 44.0527 24.9993 43.7432 27.8544 42.5606C30.7095 41.378 33.1498 39.3753 34.8667 36.8058C36.5836 34.2363 37.5 31.2153 37.5 28.125H21.875V12.5Z" stroke="#0054A4" stroke-width="2.5" stroke-linecap="round" stroke-linejoin="round"/>
<path d="M28.125 21.875H43.75C43.75 17.731 42.1038 13.7567 39.1735 10.8265C36.2433 7.8962 32.269 6.25 28.125 6.25V21.875Z" stroke="#0054A4" stroke-width="2.5" stroke-linecap="round" stroke-linejoin="round"/>
</svg>
