<svg width="50" height="50" viewBox="0 0 50 50" fill="none" xmlns="http://www.w3.org/2000/svg">
<path d="M25 12.5V37.5M18.75 31.6292L20.5812 33.0021C23.0208 34.8333 26.9771 34.8333 29.4187 33.0021C31.8604 31.1708 31.8604 28.2042 29.4187 26.3729C28.2 25.4563 26.6 25 25 25C23.4896 25 21.9792 24.5417 20.8271 23.6271C18.5229 21.7958 18.5229 18.8292 20.8271 16.9979C23.1312 15.1667 26.8687 15.1667 29.1729 16.9979L30.0375 17.6854M43.75 25C43.75 27.4623 43.265 29.9005 42.3227 32.1753C41.3805 34.4502 39.9993 36.5172 38.2582 38.2582C36.5172 39.9993 34.4502 41.3805 32.1753 42.3227C29.9005 43.265 27.4623 43.75 25 43.75C22.5377 43.75 20.0995 43.265 17.8247 42.3227C15.5498 41.3805 13.4828 39.9993 11.7417 38.2582C10.0006 36.5172 8.61953 34.4502 7.67726 32.1753C6.73498 29.9005 6.25 27.4623 6.25 25C6.25 20.0272 8.22544 15.2581 11.7417 11.7417C15.2581 8.22544 20.0272 6.25 25 6.25C29.9728 6.25 34.7419 8.22544 38.2582 11.7417C41.7746 15.2581 43.75 20.0272 43.75 25Z" stroke="#0054A4" stroke-width="2.5" stroke-linecap="round" stroke-linejoin="round"/>
</svg>
