<svg width="301" height="301" viewBox="0 0 301 301" fill="none" xmlns="http://www.w3.org/2000/svg">
<path fill-rule="evenodd" clip-rule="evenodd" d="M148.636 0C146.567 0.513307 144.651 1.74393 143.312 3.69241L62.9155 120.648L117.33 151.715L134.039 128.851C137.677 123.872 143.078 121.159 148.636 120.717V0ZM183.381 151.678L166.42 128.756C163.07 124.229 158.262 121.6 153.218 120.865V0.0172748C155.259 0.539905 157.147 1.76449 158.472 3.69022L238.585 120.162L183.381 151.678ZM241.168 123.917L73.6682 219.545H75.5585H86.589H242.877C244.782 219.545 246.511 218.443 247.296 216.727L300.548 100.349C302.488 96.1135 297.802 91.9045 293.72 94.2135L241.176 123.93L241.168 123.917ZM64.5871 219.545C64.6806 219.463 64.7841 219.388 64.8973 219.323L145.744 173.166L34.0957 109.424L7.28096 94.2533C3.19242 91.9401 -1.49615 96.1639 0.45719 100.401L54.0933 216.74C54.8812 218.449 56.6067 219.545 58.5073 219.545H64.5871Z" fill="#0054A4"/>
<path d="M95.4175 278.15H83.4168V298.493H71.6846V241.917H96.2993C101.974 241.917 106.498 243.376 109.872 246.293C113.246 249.21 114.933 253.726 114.933 259.842C114.933 266.52 113.246 271.241 109.872 274.005C106.498 276.769 101.68 278.15 95.4175 278.15ZM100.939 266.367C102.472 265.011 103.239 262.861 103.239 259.919C103.239 256.976 102.459 254.878 100.9 253.624C99.3666 252.37 97.2067 251.743 94.4206 251.743H83.4168V268.401H94.4206C97.2067 268.401 99.3793 267.723 100.939 266.367Z" fill="#0054A4"/>
<path d="M147.791 276.308H135.599V298.493H124.058V241.917H151.778C155.74 241.994 158.782 242.48 160.903 243.376C163.05 244.271 164.865 245.589 166.348 247.329C167.575 248.762 168.546 250.349 169.262 252.089C169.977 253.829 170.335 255.812 170.335 258.038C170.335 260.725 169.658 263.373 168.303 265.983C166.948 268.567 164.712 270.397 161.593 271.472C164.201 272.521 166.041 274.018 167.115 275.963C168.214 277.882 168.763 280.824 168.763 284.791V288.59C168.763 291.175 168.865 292.928 169.07 293.849C169.377 295.307 170.092 296.382 171.217 297.073V298.493H158.22C157.862 297.239 157.606 296.229 157.453 295.461C157.146 293.874 156.98 292.25 156.954 290.586L156.878 285.328C156.826 281.72 156.162 279.315 154.884 278.112C153.631 276.909 151.267 276.308 147.791 276.308ZM154.961 266.021C157.312 264.947 158.488 262.823 158.488 259.65C158.488 256.221 157.35 253.918 155.076 252.741C153.798 252.076 151.881 251.743 149.324 251.743H135.599V266.943H148.979C151.638 266.943 153.631 266.636 154.961 266.021Z" fill="#0054A4"/>
<path d="M205.532 300.067C197.455 300.067 191.282 297.866 187.013 293.465C181.288 288.066 178.425 280.287 178.425 270.128C178.425 259.765 181.288 251.986 187.013 246.792C191.282 242.391 197.455 240.19 205.532 240.19C213.609 240.19 219.782 242.391 224.05 246.792C229.75 251.986 232.6 259.765 232.6 270.128C232.6 280.287 229.75 288.066 224.05 293.465C219.782 297.866 213.609 300.067 205.532 300.067ZM216.689 284.867C219.424 281.413 220.792 276.5 220.792 270.128C220.792 263.782 219.411 258.882 216.651 255.428C213.916 251.948 210.21 250.208 205.532 250.208C200.854 250.208 197.123 251.935 194.336 255.389C191.55 258.844 190.157 263.757 190.157 270.128C190.157 276.5 191.55 281.413 194.336 284.867C197.123 288.322 200.854 290.049 205.532 290.049C210.21 290.049 213.929 288.322 216.689 284.867Z" fill="#0054A4"/>
</svg>
