<svg width="65" height="65" viewBox="0 0 65 65" fill="none" xmlns="http://www.w3.org/2000/svg">
<path fill-rule="evenodd" clip-rule="evenodd" d="M32.0974 0C31.6508 0.110726 31.237 0.376184 30.9478 0.796494L13.5864 26.0252L25.3371 32.7265L28.9454 27.7945C29.731 26.7206 30.8972 26.1354 32.0974 26.0399V0ZM39.6005 32.7187L35.9378 27.7741C35.2145 26.7976 34.1762 26.2305 33.0869 26.072V0.00372636C33.5277 0.116463 33.9355 0.380621 34.2215 0.796021L51.5216 25.9202L39.6005 32.7187ZM52.0794 26.7302L15.9084 47.3584H16.3166H18.6986H52.4485C52.8599 47.3584 53.2333 47.1205 53.4029 46.7504L64.9025 21.6464C65.3213 20.7327 64.3093 19.8248 63.4279 20.3229L52.0813 26.733L52.0794 26.7302ZM13.9474 47.3584C13.9676 47.3405 13.9899 47.3244 14.0144 47.3104L31.4729 37.3539L7.36286 23.604L1.5723 20.3315C0.689393 19.8325 -0.323088 20.7436 0.0987288 21.6576L11.6813 46.7531C11.8514 47.1218 12.224 47.3584 12.6345 47.3584H13.9474Z" fill="#0054A4"/>
<path d="M20.6055 60H18.014V64.3882H15.4805V52.1841H20.7959C22.0213 52.1841 22.9983 52.4987 23.7269 53.128C24.4555 53.7572 24.8198 54.7314 24.8198 56.0507C24.8198 57.4913 24.4555 58.5097 23.7269 59.1058C22.9983 59.7019 21.9578 60 20.6055 60ZM21.7978 57.4582C22.1289 57.1656 22.2945 56.702 22.2945 56.0672C22.2945 55.4324 22.1262 54.9798 21.7895 54.7094C21.4583 54.4389 20.9919 54.3037 20.3902 54.3037H18.014V57.897H20.3902C20.9919 57.897 21.4611 57.7507 21.7978 57.4582Z" fill="#0054A4"/>
<path d="M31.9154 59.6026H29.2825V64.3882H26.7903V52.1841H32.7765C33.632 52.2007 34.2889 52.3055 34.747 52.4987C35.2106 52.6919 35.6025 52.9762 35.9227 53.3515C36.1876 53.6606 36.3974 54.0028 36.5519 54.3782C36.7065 54.7535 36.7838 55.1813 36.7838 55.6615C36.7838 56.2411 36.6375 56.8124 36.3449 57.3754C36.0524 57.9329 35.5694 58.3275 34.896 58.5594C35.459 58.7857 35.8564 59.1086 36.0883 59.5281C36.3256 59.942 36.4443 60.5768 36.4443 61.4324V62.252C36.4443 62.8095 36.4664 63.1876 36.5105 63.3863C36.5768 63.701 36.7313 63.9328 36.9742 64.0818V64.3882H34.1674C34.0901 64.1177 34.0349 63.8997 34.0018 63.7341C33.9356 63.3919 33.8997 63.0414 33.8942 62.6826L33.8776 61.5483C33.8666 60.77 33.7231 60.2511 33.4471 59.9917C33.1766 59.7323 32.6661 59.6026 31.9154 59.6026ZM33.4637 57.3837C33.9715 57.1518 34.2254 56.6937 34.2254 56.0093C34.2254 55.2696 33.9797 54.7728 33.4885 54.5189C33.2125 54.3754 32.7985 54.3037 32.2466 54.3037H29.2825V57.5824H32.172C32.7461 57.5824 33.1766 57.5161 33.4637 57.3837Z" fill="#0054A4"/>
<path d="M44.3844 64.7276C42.6402 64.7276 41.3071 64.2529 40.3854 63.3035C39.1489 62.1389 38.5307 60.4609 38.5307 58.2696C38.5307 56.0341 39.1489 54.3561 40.3854 53.2356C41.3071 52.2862 42.6402 51.8115 44.3844 51.8115C46.1286 51.8115 47.4616 52.2862 48.3834 53.2356C49.6143 54.3561 50.2297 56.0341 50.2297 58.2696C50.2297 60.4609 49.6143 62.1389 48.3834 63.3035C47.4616 64.2529 46.1286 64.7276 44.3844 64.7276ZM46.7937 61.4489C47.3843 60.7038 47.6796 59.644 47.6796 58.2696C47.6796 56.9007 47.3816 55.8437 46.7855 55.0985C46.1948 54.3478 45.3945 53.9725 44.3844 53.9725C43.3743 53.9725 42.5684 54.3451 41.9668 55.0902C41.3651 55.8354 41.0643 56.8952 41.0643 58.2696C41.0643 59.644 41.3651 60.7038 41.9668 61.4489C42.5684 62.1941 43.3743 62.5667 44.3844 62.5667C45.3945 62.5667 46.1976 62.1941 46.7937 61.4489Z" fill="#0054A4"/>
</svg>
