<svg width="158" height="79" viewBox="0 0 158 79" fill="none" xmlns="http://www.w3.org/2000/svg">
<path fill-rule="evenodd" clip-rule="evenodd" d="M20.4096 74.339C20.3188 75.6385 20.2753 76.946 20.2753 78.2692H0C0 76.9065 0.03555 75.5556 0.1027 74.2126C2.212 32.8719 36.3716 0 78.1982 0C120.313 0 154.65 33.3182 156.329 75.0579C156.373 76.1244 156.396 77.1909 156.396 78.2692H136.125C136.125 77.0685 136.085 75.8755 136.01 74.6906C134.162 44.3822 108.933 20.2911 78.1982 20.2911C47.5778 20.2911 22.432 44.1965 20.4096 74.339ZM46.5547 74.576C46.4121 75.8019 46.3409 77.0351 46.3414 78.2692H26.066C26.066 77.1119 26.1055 75.9664 26.1806 74.8327C27.9502 47.6172 50.56 26.0897 78.1982 26.0897C105.88 26.0897 128.521 47.6805 130.228 74.9512C130.295 76.0493 130.326 77.1553 130.326 78.2692H110.059C110.059 77.104 109.996 75.9585 109.869 74.8209C108.151 58.855 94.6025 46.3809 78.1982 46.3809C61.8807 46.3809 48.3875 58.7286 46.5547 74.576ZM78.1982 52.1795C81.623 52.18 85.0143 52.8554 88.1781 54.167C91.3418 55.4786 94.2162 57.4007 96.6368 59.8236C99.0575 62.2465 100.977 65.1226 102.286 68.2875C103.595 71.4525 104.267 74.8444 104.264 78.2692H52.1321C52.13 74.8445 52.8027 71.4529 54.1116 68.2881C55.4205 65.1234 57.34 62.2475 59.7606 59.8248C62.1812 57.402 65.0553 55.4798 68.2189 54.168C71.3824 52.8562 74.7734 52.1805 78.1982 52.1795Z" fill="#252434"/>
</svg>
