<svg width="138" height="79" viewBox="0 0 138 79" fill="none" xmlns="http://www.w3.org/2000/svg">
<path d="M76.2185 62.721C76.2185 62.721 76.7655 61.6274 77.0172 61.0806C77.8851 59.1269 78.7529 57.1766 79.6208 55.2302L80.2882 53.7265L94.0069 22.8667C96.2825 18.9136 97.5734 13.1398 95.3855 8.74368C94.4906 6.74691 93.1598 4.97578 91.4908 3.56029C89.8083 2.19485 87.8379 1.22859 85.728 0.734223C83.618 0.239857 81.4233 0.230257 79.3091 0.706142C78.1076 0.975083 76.9532 1.42297 75.8849 2.0348C73.6972 3.1941 71.8654 4.92541 70.5851 7.04393C69.3047 9.16245 68.6239 11.5887 68.6152 14.0638L68.7903 14.2442L74.7526 14.3043C75.141 14.5722 75.7699 14.5394 75.8849 15.1081C73.4616 16.9617 69.3208 18.6129 69.8405 22.4731L75.8575 60.5776C75.9943 61.2994 76.2185 62.721 76.2185 62.721Z" fill="#252434"/>
<path d="M53.801 55.0585C54.7528 57.1745 55.7101 59.2741 56.7493 61.3464C56.9572 61.7783 57.3893 62.6313 57.3893 62.6313C57.3893 62.6313 57.7558 60.7121 57.8925 59.8264L64.6699 16.4127C65.0984 13.2858 64.477 10.1051 62.9031 7.36913C62.0254 5.9384 60.9057 4.67106 59.5938 3.62375C54.266 -0.641059 46.0391 -0.580914 41.1598 4.37283C39.2716 6.17672 37.928 8.47432 37.2819 11.0041C36.636 13.5338 36.7136 16.194 37.5059 18.6819C42.5711 29.9817 47.6381 41.2908 52.707 52.609C53.0735 53.4237 53.4345 54.2438 53.801 55.0585Z" fill="#252434"/>
<path d="M76.4512 72.4196L77.8077 71.5502L108.133 50.7511L108.807 50.2591L113.86 46.7925C116.197 45.0264 118.959 43.6813 120.632 40.9857C123.329 37.1584 123.865 30.8978 121.442 26.7697C119.489 22.8111 115.371 20.1319 111.279 19.3993C108.628 18.9931 105.917 19.3419 103.455 20.4057C100.994 21.4696 98.8825 23.2052 97.363 25.4138C97.1169 25.7746 96.8871 26.1464 96.6629 26.5073C90.066 41.3958 82.7964 56.033 76.8668 71.1785L76.4512 72.4196Z" fill="#252434"/>
<path d="M25.3485 50.6844C35.6594 57.7924 57.0745 72.4186 57.0745 72.4186L56.2923 70.3791L37.377 28.2176L37.1035 27.6107C35.6021 24.3591 32.9308 21.7918 29.6212 20.4199C26.3118 19.0481 22.6068 18.9721 19.2439 20.2074C17.2278 21.0177 15.4222 22.2756 13.9639 23.8858C12.5054 25.4962 11.4324 27.4167 10.8257 29.5025C10.1082 32.064 10.1541 34.7792 10.9576 37.315C11.7612 39.8508 13.2874 42.0971 15.3493 43.7787L23.7458 49.58L25.3485 50.6844Z" fill="#252434"/>
<path d="M74.834 78.6378H119.562C123.812 78.6378 127.663 76.7843 130.601 73.2193C130.82 72.9514 131.017 72.6725 131.213 72.3718C133.663 68.6482 134.221 63.2025 132.307 59.1509C130.957 56.16 128.084 53.1692 125.027 51.9663C121.078 50.0799 115.564 50.501 111.942 52.8356L89.1982 68.6538L87.9346 69.5286L75.7912 77.9762L74.834 78.6378Z" fill="#252434"/>
<path d="M2.86997 73.2275C4.2172 74.9519 5.94783 76.3389 7.92463 77.2785C9.9014 78.2181 12.0701 78.6844 14.2586 78.6404H58.6366L53.8285 75.2996L45.5797 69.5696L21.5117 52.8438C17.8906 50.509 12.3768 50.1099 8.42748 51.9744C5.37523 53.1774 2.49801 56.1682 1.14692 59.159C-0.11845 62.0732 -0.344377 65.3333 0.506925 68.3939C0.952213 70.1509 1.7568 71.7967 2.86997 73.2275Z" fill="#252434"/>
</svg>
