<svg width="219" height="79" viewBox="0 0 219 79" fill="none" xmlns="http://www.w3.org/2000/svg">
<g clip-path="url(#clip0_1_5057)">
<path d="M39.3077 79C61.0167 79 78.6154 61.3152 78.6154 39.5C78.6154 17.6848 61.0167 0 39.3077 0C17.5987 0 0 17.6848 0 39.5C0 61.3152 17.5987 79 39.3077 79Z" fill="#252434"/>
<path d="M101.077 30.3303C101.687 30.3678 102.299 30.274 102.87 30.055C103.441 29.8361 103.96 29.4971 104.39 29.0607C105.202 28.0215 105.584 26.7078 105.457 25.3928V9.67746H112.56V25.3928C112.649 26.8747 112.421 28.3585 111.894 29.7451C111.366 31.1318 110.55 32.3893 109.5 33.4339C107.152 35.4179 104.14 36.427 101.077 36.2553C98.0138 36.4299 95.0002 35.4204 92.6539 33.4339C91.5687 32.4069 90.7162 31.1572 90.1542 29.7697C89.5922 28.3822 89.334 26.8895 89.397 25.3928V9.67746H96.5004V25.3928C96.4165 26.7043 96.8388 27.9977 97.6797 29.0042C98.1134 29.4636 98.643 29.8208 99.2304 30.05C99.8178 30.2793 100.448 30.375 101.077 30.3303ZM126.739 36.2835C124.687 36.2821 122.652 35.9093 120.731 35.1832C118.853 34.4938 117.133 33.4284 115.677 32.0514L119.102 27.7064C120.11 28.625 121.269 29.3602 122.528 29.8789C123.866 30.419 125.297 30.6875 126.739 30.6689C127.578 30.7148 128.413 30.5294 129.154 30.1328C129.431 29.9693 129.658 29.7333 129.811 29.45C129.964 29.1667 130.038 28.8468 130.024 28.5246C130.02 28.1781 129.92 27.8396 129.737 27.546C129.554 27.2524 129.294 27.0151 128.985 26.86C127.838 26.2124 126.611 25.7191 125.335 25.3928L123.735 24.9696C121.734 24.5352 119.89 23.5596 118.4 22.1482C117.791 21.5074 117.315 20.7503 117.002 19.9216C116.688 19.0929 116.543 18.2095 116.575 17.3235C116.587 15.8082 117.057 14.3323 117.923 13.0914C118.84 11.8367 120.084 10.8604 121.517 10.27C123.196 9.56254 125.003 9.21653 126.824 9.25425C128.748 9.25823 130.654 9.63171 132.439 10.3546C134.194 11.0382 135.818 12.0213 137.24 13.2607L133.702 17.7467C132.723 16.9174 131.637 16.2246 130.474 15.6871C129.329 15.1193 128.072 14.8203 126.795 14.8125C125.978 14.7596 125.161 14.9354 124.437 15.3203C124.149 15.4724 123.91 15.7052 123.751 15.9907C123.591 16.2761 123.518 16.6019 123.539 16.9285C123.548 17.2425 123.632 17.5496 123.783 17.8244C123.935 18.0991 124.149 18.3337 124.409 18.5085C125.334 19.1084 126.362 19.5294 127.441 19.75L129.379 20.286C131.613 20.7485 133.669 21.8452 135.303 23.446C136.445 24.7227 137.066 26.3849 137.044 28.1014C137.071 29.6492 136.62 31.1673 135.752 32.4464C134.827 33.7052 133.574 34.6818 132.13 35.2678C130.423 35.9796 128.587 36.3256 126.739 36.2835ZM158.522 35.7757L156.866 31.0357H147.151L145.523 35.9167H138.504L148.022 9.81853H156.276L165.654 35.7757H158.522ZM148.808 25.6185H154.957L152.037 16.4771L148.808 25.6185ZM97.1181 69.2096V48.8671H89.397V43.2242H111.859V48.8671H104.222V69.2096H97.1181ZM126.795 69.7175C124.374 69.7647 121.982 69.1712 119.86 67.9964C117.875 66.8592 116.235 65.2013 115.115 63.2C113.916 61.0677 113.305 58.6519 113.347 56.2028C113.319 54.3525 113.643 52.5138 114.301 50.7857C114.935 49.1782 115.891 47.7186 117.109 46.4971C118.331 45.2811 119.782 44.3219 121.377 43.6757C124.84 42.3501 128.667 42.3501 132.13 43.6757C133.725 44.3226 135.175 45.2817 136.398 46.4971C137.616 47.7181 138.572 49.1778 139.205 50.7857C139.942 52.4981 140.343 54.3376 140.385 56.2028C140.435 58.6494 139.834 61.065 138.644 63.2C137.505 65.1984 135.845 66.8469 133.843 67.9682C131.691 69.1722 129.258 69.7761 126.795 69.7175ZM126.795 63.8207C127.954 63.8461 129.091 63.5111 130.052 62.8614C131.011 62.1841 131.768 61.2576 132.242 60.181C132.805 58.9325 133.084 57.5733 133.057 56.2028C133.079 54.8328 132.801 53.4746 132.242 52.2246C131.783 51.1002 131.026 50.1242 130.052 49.4032C129.081 48.7612 127.944 48.4191 126.781 48.4191C125.619 48.4191 124.482 48.7612 123.51 49.4032C122.537 50.1242 121.779 51.1002 121.32 52.2246C120.762 53.4746 120.484 54.8328 120.506 56.2028C120.479 57.5733 120.757 58.9325 121.32 60.181C121.795 61.2576 122.552 62.1841 123.51 62.8614C124.483 63.5067 125.631 63.8321 126.795 63.7925V63.8207ZM144.344 69.2096V43.1114H154.592C156.971 43.0614 159.323 43.6351 161.414 44.776C163.348 45.8548 164.95 47.4454 166.047 49.375C167.148 51.4605 167.724 53.7854 167.724 56.1464C167.724 58.5073 167.148 60.8323 166.047 62.9178C164.95 64.8474 163.348 66.4379 161.414 67.5167C159.323 68.6577 156.971 69.2314 154.592 69.1814L144.344 69.2096ZM151.335 63.5667H154.592C155.434 63.5999 156.271 63.4333 157.037 63.0803C157.803 62.7274 158.475 62.1981 159 61.5353C160.133 59.9861 160.707 58.0955 160.628 56.1746C160.707 54.2537 160.133 52.3631 159 50.8139C158.475 50.1511 157.803 49.6218 157.037 49.2689C156.271 48.9159 155.434 48.7493 154.592 48.7825H151.335V63.5667ZM188.677 69.2096L187.049 64.3285H177.306L175.677 69.2096H168.658L178.176 43.1114H186.431L195.949 69.2096H188.677ZM179.103 59.0525H185.308L182.247 49.911L179.103 59.0525ZM209.65 59.8142V69.2096H202.435V59.8142L193.225 43.1114H201.255L206.057 53.6071L210.83 43.2525H218.86L209.65 59.8142Z" fill="#252434"/>
</g>
<defs>
<clipPath id="clip0_1_5057">
<rect width="219" height="79" fill="white"/>
</clipPath>
</defs>
</svg>
