<svg width="368" height="59" viewBox="0 0 368 59" fill="none" xmlns="http://www.w3.org/2000/svg">
<path d="M22.7866 24.6171H15.0854V47.2379H4.99586V24.6171H0.182617V16.8592H4.99586V14.6498C4.99586 11.1475 5.99507 8.32304 8.00566 6.17644C10.0163 4.02985 12.8555 2.95027 16.5233 2.95027C19.6279 2.90966 22.6739 3.82307 25.2724 5.57389L21.8483 11.9635C21.3523 11.6731 20.8299 11.4334 20.2886 11.2479C19.7037 11.0471 19.07 10.9467 18.3755 10.9467C17.4494 10.9467 16.6695 11.2479 16.0237 11.8379C15.39 12.4405 15.0732 13.3694 15.0732 14.6373V16.8467H22.7744V24.6171H22.7866ZM28.3431 47.2379V3.6658H38.4205V47.2379H28.3431ZM59.8059 48.0162C56.6377 48.0162 53.8473 47.3258 51.4345 45.9575C49.0121 44.6089 47.0039 42.5895 45.6366 40.1273C44.2693 37.6652 43.5974 34.8582 43.6968 32.0235C43.6968 28.8852 44.3792 26.1109 45.7561 23.7258C47.1122 21.3532 49.077 19.4116 51.4345 18.1145C54.0129 16.7175 56.8933 16.0178 59.8059 16.0809C62.9741 16.0809 65.7646 16.7588 68.1773 18.1145C70.5322 19.4153 72.4962 21.356 73.8557 23.7258C75.2582 26.2488 75.97 29.1166 75.9151 32.0235C76.0144 34.8582 75.3425 37.6652 73.9752 40.1273C72.608 42.5895 70.5997 44.6089 68.1773 45.9575C65.6031 47.3685 62.7212 48.0772 59.8059 48.0162ZM59.8059 39.7813C61.585 39.7813 62.9985 39.0784 64.0586 37.6598C65.1891 36.0185 65.7513 34.0335 65.6549 32.0235C65.6549 29.676 65.1188 27.8056 64.0586 26.4122C63.5628 25.7402 62.918 25.2004 62.1781 24.8379C61.4382 24.4753 60.6248 24.3006 59.8059 24.3284C58.9869 24.2996 58.1731 24.4738 57.4331 24.8364C56.693 25.1991 56.0483 25.7395 55.5532 26.4122C54.4194 28.0423 53.8565 30.0207 53.9569 32.0235C53.9569 34.3709 54.4931 36.2539 55.5532 37.6598C56.0416 38.3426 56.684 38.8926 57.4249 39.2623C58.1659 39.6319 58.9831 39.8101 59.8059 39.7813ZM91.2687 35.4756V47.2379H81.1914V16.8592H90.4035L91.0372 21.9307C91.6487 20.2825 92.741 18.8701 94.1638 17.8877C95.5865 16.9053 97.2698 16.4013 98.9821 16.445C100.03 16.445 100.822 16.583 101.358 16.8592V26.3494C100.9 26.181 100.427 26.0632 99.9447 25.9979C99.4208 25.9226 98.8359 25.8724 98.1778 25.8724C96.1673 25.8724 94.5222 26.6381 93.2184 28.1696C91.9145 29.7011 91.2687 32.1364 91.2687 35.4756ZM106.208 47.2379V16.8592C107.829 17.2233 109.474 17.399 111.131 17.399C112.825 17.399 114.555 17.2233 116.285 16.8592V47.2379H106.208ZM144.166 47.2379L143.642 43.2335C142.739 44.6829 141.505 45.8814 140.047 46.7233C138.486 47.5995 136.731 48.0408 134.953 48.0037C132.485 48.0638 130.055 47.3668 127.972 46.0011C125.89 44.6354 124.248 42.6627 123.255 40.3337C122.093 37.7254 121.518 34.8803 121.574 32.0109C121.574 28.8726 122.134 26.0984 123.255 23.7132C124.377 21.3281 125.912 19.4577 127.862 18.102C129.858 16.7319 132.214 16.0224 134.612 16.0684C136.285 16.0482 137.939 16.4264 139.446 17.1732C140.953 17.9201 142.272 19.0155 143.3 20.3741V3.6658H153.378V47.2379H144.166ZM137.671 39.7813C139.413 39.7813 140.815 39.0784 141.875 37.6598C143.005 36.0185 143.567 34.0335 143.471 32.0235C143.471 29.676 142.935 27.793 141.875 26.3871C141.391 25.7114 140.757 25.1658 140.025 24.7965C139.293 24.4272 138.485 24.2451 137.671 24.2656C135.892 24.2656 134.478 24.9686 133.418 26.3871C132.288 28.0284 131.725 30.0134 131.822 32.0235C131.822 34.3709 132.358 36.2539 133.418 37.6598C133.907 38.3418 134.55 38.8913 135.291 39.2608C136.031 39.6304 136.848 39.809 137.671 39.7813ZM177.249 47.2379L176.725 43.2335C174.788 46.422 171.863 48.0037 167.915 48.0037C166.269 48.0273 164.644 47.6259 163.187 46.8362C161.774 46.0988 160.592 44.9652 159.777 43.566C158.962 42.1669 158.548 40.559 158.581 38.9277C158.521 37.3851 158.843 35.8521 159.517 34.473C160.19 33.0939 161.193 31.914 162.432 31.0443C165.003 29.1739 168.39 28.245 172.594 28.245C173.91 28.245 175.299 28.3579 176.762 28.5964C176.721 27.9147 176.53 27.2515 176.203 26.6576C175.875 26.0636 175.42 25.5546 174.873 25.1694C173.681 24.3644 172.277 23.9568 170.852 24.002C169.463 24.002 168.061 24.2656 166.648 24.8054C165.234 25.3452 163.894 25.9854 162.627 26.7511L159.227 20.0854C163.112 17.5359 167.611 16.1535 172.217 16.0935C174.922 16.0935 177.359 16.5705 179.516 17.5245C181.6 18.4152 183.376 19.9334 184.609 21.8805C185.915 24.1099 186.559 26.6847 186.461 29.2869V47.2505H177.249V47.2379ZM168.378 37.3962C168.378 38.3126 168.707 39.0532 169.365 39.6307C170.023 40.2081 170.876 40.4969 171.912 40.4969C172.567 40.5144 173.219 40.3936 173.827 40.1418C174.435 39.8899 174.987 39.5125 175.448 39.0326C175.91 38.5528 176.271 37.9807 176.509 37.3517C176.747 36.7227 176.858 36.05 176.835 35.3752V34.3584C175.787 34.1575 174.69 34.0571 173.533 34.0571C172.058 34.0571 170.84 34.3207 169.853 34.8354C168.878 35.3375 168.378 36.2037 168.378 37.3962Z" fill="#252434"/>
<path d="M228.525 45.2668C225.862 47.0765 222.736 48.0291 219.545 48.0034C216.377 48.0034 213.854 47.0619 211.978 45.1664C210.101 43.2834 209.163 40.7351 209.163 37.5591V24.6168H204.35V16.8589H209.626L210.905 8.38553H219.252V16.8589H226.954V24.6168H219.252V36.2536C219.252 37.283 219.557 38.0989 220.154 38.6764C220.751 39.2538 221.555 39.5426 222.555 39.5426C223.054 39.5426 223.566 39.4421 224.09 39.2413C224.6 39.0461 225.093 38.8068 225.564 38.5257L228.525 45.2668ZM246.767 48.016C243.599 48.016 240.808 47.3255 238.396 45.9572C235.973 44.6087 233.965 42.5893 232.598 40.1271C231.23 37.6649 230.559 34.858 230.658 32.0232C230.658 28.8849 231.34 26.1106 232.717 23.7255C234.073 21.3529 236.038 19.4114 238.396 18.1143C240.974 16.7172 243.855 16.0175 246.767 16.0806C249.935 16.0806 252.726 16.7585 255.138 18.1143C257.493 19.4151 259.457 21.3557 260.817 23.7255C262.219 26.2485 262.931 29.1163 262.876 32.0232C262.976 34.858 262.304 37.6649 260.936 40.1271C259.569 42.5893 257.561 44.6087 255.138 45.9572C252.564 47.3682 249.682 48.0769 246.767 48.016ZM246.767 39.7811C248.546 39.7811 249.96 39.0781 251.02 37.6596C252.15 36.0183 252.712 34.0332 252.616 32.0232C252.616 29.6757 252.08 27.8053 251.02 26.4119C250.524 25.74 249.879 25.2001 249.139 24.8376C248.399 24.475 247.586 24.3003 246.767 24.3281C245.948 24.2993 245.134 24.4735 244.394 24.8362C243.654 25.1988 243.01 25.7392 242.514 26.4119C241.381 28.042 240.818 30.0205 240.918 32.0232C240.918 34.3706 241.454 36.2536 242.514 37.6596C243.003 38.3416 243.646 38.891 244.387 39.2605C245.128 39.6301 245.944 39.8087 246.767 39.7811ZM288.953 47.2377L288.429 43.2332C287.527 44.6826 286.292 45.8811 284.834 46.723C283.274 47.5992 281.518 48.0405 279.741 48.0034C277.273 48.0635 274.843 47.3665 272.76 46.0008C270.677 44.6351 269.035 42.6625 268.043 40.3334C266.881 37.7251 266.306 34.88 266.361 32.0106C266.361 28.8723 266.922 26.0981 268.043 23.713C269.164 21.3279 270.699 19.4574 272.649 18.1017C274.646 16.7316 277.001 16.0222 279.4 16.0681C281.072 16.048 282.726 16.4261 284.233 17.173C285.74 17.9198 287.059 19.0153 288.088 20.3738V3.66553H298.165V47.2377H288.953ZM282.458 39.7811C284.201 39.7811 285.602 39.0781 286.662 37.6596C287.793 36.0183 288.355 34.0332 288.258 32.0232C288.258 29.6757 287.722 27.7928 286.662 26.3868C286.179 25.7111 285.544 25.1655 284.812 24.7962C284.08 24.4269 283.273 24.2448 282.458 24.2653C280.679 24.2653 279.266 24.9683 278.206 26.3868C277.075 28.0281 276.513 30.0132 276.609 32.0232C276.609 34.3706 277.145 36.2536 278.206 37.6596C278.695 38.3416 279.337 38.891 280.078 39.2605C280.819 39.6301 281.636 39.8087 282.458 39.7811ZM322.036 47.2377L321.513 43.2332C319.575 46.4217 316.651 48.0034 312.702 48.0034C311.057 48.027 309.431 47.6256 307.975 46.836C306.562 46.0985 305.38 44.9649 304.565 43.5658C303.75 42.1666 303.335 40.5588 303.368 38.9274C303.309 37.3848 303.63 35.8519 304.304 34.4728C304.978 33.0937 305.981 31.9137 307.219 31.044C309.79 29.1736 313.178 28.2447 317.382 28.2447C318.698 28.2447 320.087 28.3577 321.549 28.5962C321.509 27.9144 321.317 27.2513 320.99 26.6573C320.663 26.0633 320.208 25.5543 319.66 25.1691C318.468 24.3641 317.064 23.9565 315.639 24.0017C314.25 24.0017 312.849 24.2653 311.435 24.8051C310.022 25.3449 308.681 25.9851 307.414 26.7508L304.014 20.0851C307.899 17.5356 312.398 16.1532 317.004 16.0932C319.709 16.0932 322.146 16.5702 324.303 17.5243C326.388 18.4149 328.163 19.9331 329.397 21.8802C330.703 24.1097 331.347 26.6844 331.249 29.2866V47.2502H322.036V47.2377ZM313.166 37.396C313.166 38.3123 313.495 39.053 314.153 39.6304C314.811 40.2079 315.664 40.4966 316.699 40.4966C317.355 40.5142 318.006 40.3933 318.615 40.1415C319.223 39.8897 319.775 39.5122 320.236 39.0324C320.697 38.5525 321.058 37.9805 321.296 37.3514C321.535 36.7224 321.646 36.0497 321.622 35.3749V34.3581C320.574 34.1572 319.478 34.0568 318.32 34.0568C316.846 34.0568 315.627 34.3204 314.64 34.8351C313.665 35.3372 313.166 36.2034 313.166 37.396ZM357.265 44.8525C355.486 49.5474 353.463 53.0498 351.184 55.3596C350.037 56.5103 348.676 57.4104 347.183 58.0058C345.69 58.6012 344.096 58.8796 342.496 58.8243C340.912 58.8243 339.486 58.6485 338.207 58.2845C337.077 57.9866 335.988 57.5438 334.965 56.9664L337.804 49.7985C338.38 50.0905 338.979 50.33 339.596 50.514C340.254 50.7149 340.948 50.8153 341.679 50.8153C342.727 50.8153 343.653 50.5517 344.494 50.037C345.471 49.3407 346.225 48.3623 346.663 47.2251L347.126 46.1455L333.795 16.8338H344.921L351.464 35.036L356.85 16.8338H367.805L357.265 44.8525Z" fill="#252434"/>
<path d="M111.01 12.6787C114.375 12.6787 117.102 9.86855 117.102 6.40208C117.102 2.93562 114.375 0.125488 111.01 0.125488C107.645 0.125488 104.917 2.93562 104.917 6.40208C104.917 9.86855 107.645 12.6787 111.01 12.6787Z" fill="#252434"/>
</svg>
