<svg width="40" height="40" viewBox="0 0 40 40" fill="none" xmlns="http://www.w3.org/2000/svg">
<path d="M12.1875 1.25V4.375M4.375 12.1875H1.25M38.75 12.1875H35.625M4.375 20H1.25M38.75 20H35.625M4.375 27.8125H1.25M38.75 27.8125H35.625M12.1875 35.625V38.75M20 1.25V4.375M20 35.625V38.75M27.8125 1.25V4.375M27.8125 35.625V38.75M9.0625 35.625H30.9375C32.1807 35.625 33.373 35.1311 34.2521 34.2521C35.1311 33.373 35.625 32.1807 35.625 30.9375V9.0625C35.625 7.8193 35.1311 6.62701 34.2521 5.74794C33.373 4.86886 32.1807 4.375 30.9375 4.375H9.0625C7.8193 4.375 6.62701 4.86886 5.74794 5.74794C4.86886 6.62701 4.375 7.8193 4.375 9.0625V30.9375C4.375 32.1807 4.86886 33.373 5.74794 34.2521C6.62701 35.1311 7.8193 35.625 9.0625 35.625ZM10.625 10.625H29.375V29.375H10.625V10.625Z" stroke="#0054A4" stroke-width="2.5" stroke-linecap="round" stroke-linejoin="round"/>
</svg>
