<svg width="44" height="39" viewBox="0 0 44 39" fill="none" xmlns="http://www.w3.org/2000/svg">
<path d="M32.539 26.3354C33.5135 25.6699 34.6566 25.2939 35.836 25.2509C37.0153 25.2079 38.1827 25.4997 39.2032 26.0925C40.2236 26.6854 41.0553 27.555 41.6022 28.6008C42.149 29.6466 42.3885 30.8258 42.2931 32.0021C39.7935 32.8757 37.1385 33.2156 34.4994 33C34.4913 30.6388 33.8113 28.3266 32.539 26.3375C31.4096 24.5662 29.8517 23.1084 28.0094 22.099C26.1672 21.0895 24.1001 20.5611 21.9994 20.5625C19.899 20.5614 17.8324 21.09 15.9905 22.0995C14.1486 23.1089 12.5911 24.5665 11.4619 26.3375M34.4973 32.9979L34.4994 33.0625C34.4994 33.5312 34.4744 33.9937 34.4223 34.45C30.6418 36.619 26.3579 37.757 21.9994 37.75C17.4785 37.75 13.2348 36.55 9.57646 34.45C9.5229 33.9679 9.49716 33.483 9.49938 32.9979M9.49938 32.9979C6.86111 33.2214 4.20752 32.8827 1.7098 32.0042C1.61469 30.8282 1.85437 29.6494 2.40111 28.6039C2.94784 27.5585 3.77931 26.6892 4.79938 26.0964C5.81945 25.5037 6.98645 25.2118 8.16546 25.2544C9.34446 25.2971 10.4873 25.6726 11.4619 26.3375M9.49938 32.9979C9.50686 30.6369 10.1903 28.3268 11.4619 26.3375M28.2494 8.0625C28.2494 9.7201 27.5909 11.3098 26.4188 12.4819C25.2467 13.654 23.657 14.3125 21.9994 14.3125C20.3418 14.3125 18.7521 13.654 17.58 12.4819C16.4079 11.3098 15.7494 9.7201 15.7494 8.0625C15.7494 6.4049 16.4079 4.81519 17.58 3.64308C18.7521 2.47098 20.3418 1.8125 21.9994 1.8125C23.657 1.8125 25.2467 2.47098 26.4188 3.64308C27.5909 4.81519 28.2494 6.4049 28.2494 8.0625ZM40.7494 14.3125C40.7494 14.9281 40.6281 15.5376 40.3926 16.1063C40.157 16.675 39.8117 17.1918 39.3764 17.6271C38.9412 18.0623 38.4244 18.4076 37.8557 18.6432C37.287 18.8788 36.6774 19 36.0619 19C35.4463 19 34.8368 18.8788 34.268 18.6432C33.6993 18.4076 33.1826 18.0623 32.7473 17.6271C32.312 17.1918 31.9668 16.675 31.7312 16.1063C31.4956 15.5376 31.3744 14.9281 31.3744 14.3125C31.3744 13.0693 31.8682 11.877 32.7473 10.9979C33.6264 10.1189 34.8187 9.625 36.0619 9.625C37.3051 9.625 38.4974 10.1189 39.3764 10.9979C40.2555 11.877 40.7494 13.0693 40.7494 14.3125ZM12.6244 14.3125C12.6244 14.9281 12.5031 15.5376 12.2676 16.1063C12.032 16.675 11.6867 17.1918 11.2514 17.6271C10.8162 18.0623 10.2994 18.4076 9.73071 18.6432C9.16199 18.8788 8.55245 19 7.93688 19C7.32131 19 6.71176 18.8788 6.14305 18.6432C5.57434 18.4076 5.05759 18.0623 4.62232 17.6271C4.18704 17.1918 3.84176 16.675 3.60619 16.1063C3.37062 15.5376 3.24938 14.9281 3.24938 14.3125C3.24938 13.0693 3.74324 11.877 4.62232 10.9979C5.50139 10.1189 6.69368 9.625 7.93688 9.625C9.18008 9.625 10.3724 10.1189 11.2514 10.9979C12.1305 11.877 12.6244 13.0693 12.6244 14.3125Z" stroke="#0054A4" stroke-width="2.5" stroke-linecap="round" stroke-linejoin="round"/>
</svg>
