<svg width="19" height="19" viewBox="0 0 19 19" fill="none" xmlns="http://www.w3.org/2000/svg">
<path opacity="0.2" d="M16.3599 3.0625V15.4375C16.3599 15.5867 16.3006 15.7298 16.1951 15.8352C16.0896 15.9408 15.9465 16 15.7974 16H3.42236C3.27318 16 3.1301 15.9408 3.02462 15.8352C2.91913 15.7298 2.85986 15.5867 2.85986 15.4375V3.0625C2.85986 2.91332 2.91913 2.77024 3.02462 2.66475C3.1301 2.55927 3.27318 2.5 3.42236 2.5H15.7974C15.9465 2.5 16.0896 2.55927 16.1951 2.66475C16.3006 2.77024 16.3599 2.91332 16.3599 3.0625Z" fill="#282828"/>
<path d="M15.7974 1.9375H3.42236C3.124 1.9375 2.83784 2.05603 2.62687 2.26701C2.41589 2.47798 2.29736 2.76414 2.29736 3.0625V15.4375C2.29736 15.7359 2.41589 16.022 2.62687 16.233C2.83784 16.444 3.124 16.5625 3.42236 16.5625H15.7974C16.0957 16.5625 16.3819 16.444 16.5929 16.233C16.8039 16.022 16.9224 15.7359 16.9224 15.4375V3.0625C16.9224 2.76414 16.8039 2.47798 16.5929 2.26701C16.3819 2.05603 16.0957 1.9375 15.7974 1.9375ZM15.7974 15.4375H3.42236V3.0625H15.7974V15.4375ZM7.35986 8.125V12.625C7.35986 12.7742 7.3006 12.9173 7.19511 13.0227C7.08962 13.1283 6.94655 13.1875 6.79736 13.1875C6.64818 13.1875 6.5051 13.1283 6.39962 13.0227C6.29413 12.9173 6.23486 12.7742 6.23486 12.625V8.125C6.23486 7.97582 6.29413 7.83273 6.39962 7.72725C6.5051 7.62177 6.64818 7.5625 6.79736 7.5625C6.94655 7.5625 7.08962 7.62177 7.19511 7.72725C7.3006 7.83273 7.35986 7.97582 7.35986 8.125ZM13.5474 10.0938V12.625C13.5474 12.7742 13.4881 12.9173 13.3826 13.0227C13.2771 13.1283 13.134 13.1875 12.9849 13.1875C12.8357 13.1875 12.6926 13.1283 12.5871 13.0227C12.4816 12.9173 12.4224 12.7742 12.4224 12.625V10.0938C12.4224 9.72078 12.2742 9.3631 12.0105 9.0994C11.7468 8.83563 11.3891 8.6875 11.0161 8.6875C10.6431 8.6875 10.2855 8.83563 10.0218 9.0994C9.75799 9.3631 9.60986 9.72078 9.60986 10.0938V12.625C9.60986 12.7742 9.55061 12.9173 9.44509 13.0227C9.33964 13.1283 9.19654 13.1875 9.04736 13.1875C8.89819 13.1875 8.75509 13.1283 8.64964 13.0227C8.54411 12.9173 8.48486 12.7742 8.48486 12.625V8.125C8.48554 7.98723 8.53684 7.85448 8.62886 7.75195C8.72096 7.64947 8.84741 7.58433 8.98436 7.56889C9.12124 7.55345 9.25909 7.58881 9.37166 7.66824C9.48424 7.74768 9.56374 7.86565 9.59509 7.99983C9.97564 7.74171 10.4193 7.5921 10.8784 7.56708C11.3376 7.54207 11.7948 7.64259 12.2011 7.85785C12.6075 8.0731 12.9474 8.395 13.1847 8.7889C13.4218 9.18287 13.5472 9.63392 13.5474 10.0938ZM7.64111 6.15625C7.64111 6.32312 7.59163 6.48626 7.49891 6.62502C7.40621 6.76376 7.27443 6.87191 7.12025 6.93577C6.96608 6.99963 6.79643 7.01634 6.63275 6.98379C6.46908 6.95124 6.31874 6.87087 6.20074 6.75287C6.08274 6.63487 6.00238 6.48453 5.96983 6.32086C5.93727 6.15719 5.95398 5.98754 6.01784 5.83336C6.0817 5.67918 6.18985 5.54741 6.3286 5.4547C6.46736 5.36198 6.63049 5.3125 6.79736 5.3125C7.02114 5.3125 7.23575 5.4014 7.39399 5.55963C7.55222 5.71786 7.64111 5.93247 7.64111 6.15625Z" fill="#282828"/>
</svg>
