<svg width="32" height="53" viewBox="0 0 32 53" fill="none" xmlns="http://www.w3.org/2000/svg">
<path fill-rule="evenodd" clip-rule="evenodd" d="M4.66612 1.66224C4.58827 1.53438 4.51042 1.43848 4.40143 1.34258C4.29244 1.24668 4.16788 1.18275 4.02775 1.1348C3.88762 1.08685 3.74749 1.05489 3.59178 1.05489C3.31152 1.05489 3.07797 1.10283 2.89113 1.21472C2.70429 1.3266 2.54859 1.47045 2.42403 1.64626C2.29947 1.82208 2.22162 2.02985 2.15934 2.2696C2.11263 2.49337 2.08149 2.73311 2.08149 2.98884C2.08149 3.22859 2.11263 3.45235 2.15934 3.67612C2.20605 3.89988 2.29947 4.10766 2.42403 4.28347C2.54859 4.45929 2.70429 4.60314 2.89113 4.71502C3.07797 4.8269 3.31152 4.87485 3.59178 4.87485C3.96547 4.87485 4.2613 4.76297 4.46371 4.52322C4.68169 4.28347 4.80625 3.97979 4.85296 3.5962H6.03628C6.00514 3.94783 5.92729 4.26749 5.78716 4.55519C5.6626 4.84288 5.49133 5.08263 5.27335 5.29041C5.05537 5.49819 4.80625 5.64204 4.52599 5.75392C4.24573 5.8658 3.91876 5.91375 3.57621 5.91375C3.15582 5.91375 2.76657 5.83384 2.42403 5.68999C2.08149 5.54614 1.80123 5.33836 1.55211 5.06665C1.31855 4.81092 1.13171 4.49125 1.00715 4.13963C0.882592 3.788 0.820312 3.4044 0.820312 2.98884C0.820312 2.57328 0.882592 2.1737 1.00715 1.80609C1.13171 1.43848 1.31855 1.1348 1.55211 0.863088C1.78566 0.591375 2.08149 0.383595 2.42403 0.223764C2.76657 0.0639327 3.14025 0 3.57621 0C3.88761 0 4.16788 0.0479492 4.44814 0.127865C4.71283 0.223763 4.96195 0.351628 5.17993 0.527443C5.39791 0.703257 5.56918 0.911038 5.70931 1.16677C5.84944 1.4225 5.94286 1.71019 5.97401 2.02985H4.79068C4.79068 1.91797 4.74397 1.79011 4.66612 1.66224ZM7.64 4.84288C7.81127 5.00271 8.04482 5.08263 8.35622 5.08263C8.5742 5.08263 8.77662 5.03468 8.93232 4.90682C9.08802 4.79493 9.19701 4.66707 9.22815 4.5392H10.2091C10.0534 5.03468 9.80424 5.38631 9.49284 5.59409C9.16587 5.80187 8.77662 5.91375 8.32508 5.91375C8.01368 5.91375 7.71785 5.8658 7.46873 5.75392C7.21961 5.64204 7.00163 5.49819 6.81479 5.32238C6.64352 5.13058 6.50339 4.90682 6.40997 4.6351C6.31654 4.37937 6.26984 4.07569 6.26984 3.77201C6.26984 3.46834 6.31654 3.18064 6.40997 2.92491C6.50339 2.66918 6.64352 2.42943 6.83036 2.23764C7.0172 2.04584 7.23518 1.88601 7.4843 1.79011C7.73342 1.67823 8.01368 1.63028 8.32508 1.63028C8.66762 1.63028 8.96346 1.69421 9.22815 1.83806C9.47727 1.98191 9.69525 2.15772 9.85095 2.38148C10.0067 2.60525 10.1312 2.86098 10.2091 3.16466C10.2869 3.45235 10.3025 3.75603 10.2869 4.07569H7.37531C7.39088 4.41134 7.4843 4.66707 7.64 4.84288ZM8.90118 2.68516C8.76104 2.54132 8.55864 2.4614 8.29394 2.4614C8.12267 2.4614 7.96697 2.49337 7.85798 2.5573C7.73342 2.62123 7.64 2.70115 7.57772 2.78106C7.49987 2.87696 7.45316 2.97286 7.43759 3.06876C7.40645 3.16466 7.39088 3.26056 7.39088 3.34047H9.19701C9.11916 3.03679 9.02574 2.82901 8.90118 2.68516ZM11.8439 2.47738V1.71019H10.8007V5.81785H11.9062V3.9798C11.9062 3.788 11.9218 3.62817 11.9529 3.46833C11.984 3.3085 12.0463 3.16466 12.1398 3.05277C12.2332 2.92491 12.3422 2.84499 12.4823 2.76508C12.6224 2.70115 12.7937 2.6532 12.9961 2.6532C13.0584 2.6532 13.1207 2.6532 13.1985 2.66918H13.2141C13.2919 2.66918 13.3542 2.68516 13.4009 2.70115V1.66224C13.3075 1.63028 13.2297 1.63028 13.1518 1.63028C13.0117 1.63028 12.8715 1.64626 12.747 1.69421C12.6224 1.74216 12.4979 1.80609 12.3733 1.87002C12.2643 1.94994 12.1553 2.04584 12.0619 2.14174C11.9685 2.25362 11.9062 2.3655 11.8439 2.49337V2.47738ZM16.3592 1.72618V2.47738H15.5496V4.50724C15.5496 4.69903 15.5807 4.8269 15.643 4.89083C15.7053 4.95476 15.8299 4.98673 16.0167 4.98673C16.079 4.98673 16.1413 4.98673 16.2035 4.98673C16.2658 4.98673 16.3125 4.97075 16.3592 4.97075V5.83384C16.2658 5.84982 16.1568 5.8658 16.0478 5.8658C15.9388 5.8658 15.8143 5.88179 15.7053 5.88179C15.534 5.88179 15.3628 5.8658 15.2226 5.84982C15.0669 5.83384 14.9268 5.78589 14.8178 5.70597C14.6932 5.64204 14.6154 5.54614 14.5375 5.41828C14.4753 5.29041 14.4285 5.13058 14.4285 4.9228V2.47738H13.759V1.72618H14.4285V0.495476H15.534V1.72618H16.3592ZM16.9976 0.159831V1.08685H18.1031V0.159831H16.9976ZM18.1187 5.81785V1.72618H17.0132V5.81785H18.1187ZM18.5546 2.47738V1.72618H19.2241V1.40651C19.2241 1.0389 19.3331 0.751206 19.5667 0.51146C19.7847 0.271713 20.1272 0.159831 20.5787 0.159831C20.6721 0.159831 20.7811 0.159831 20.8746 0.175814C20.9057 0.175814 20.9524 0.175814 20.9835 0.175814C21.0458 0.175814 21.1081 0.191797 21.1704 0.191797V1.0389C21.0458 1.02292 20.9057 1.02292 20.7656 1.02292C20.6099 1.02292 20.5009 1.05489 20.4386 1.1348C20.3763 1.19873 20.3452 1.3266 20.3452 1.50241V1.74216H21.1081V2.47738H20.3452V5.81785H19.2397V2.47738H18.5546ZM21.8399 0.159831V1.08685H22.9454V0.159831H21.8399ZM22.9454 5.81785V1.72618H21.8399V5.81785H22.9454ZM24.7048 4.84288C24.8761 5.00271 25.1096 5.08263 25.421 5.08263C25.639 5.08263 25.8414 5.03468 25.9971 4.90682C26.1528 4.79493 26.2618 4.66707 26.2929 4.5392H27.2739C27.1182 5.03468 26.869 5.38631 26.5576 5.59409C26.2307 5.80187 25.8414 5.91375 25.3899 5.91375C25.0785 5.91375 24.7826 5.8658 24.5335 5.75392C24.2844 5.64204 24.0664 5.49819 23.8796 5.32238C23.7083 5.13058 23.5682 4.90682 23.4748 4.6351C23.3813 4.37937 23.3346 4.07569 23.3346 3.77201C23.3346 3.46834 23.3813 3.18064 23.4748 2.92491C23.5682 2.66918 23.7083 2.42943 23.8952 2.23764C24.082 2.04584 24.3 1.88601 24.5491 1.79011C24.7982 1.67823 25.0785 1.63028 25.3899 1.63028C25.7324 1.63028 26.0282 1.69421 26.2929 1.83806C26.5421 1.98191 26.76 2.15772 26.9157 2.38148C27.0714 2.60525 27.196 2.86098 27.2739 3.16466C27.3517 3.45235 27.3673 3.75603 27.3517 4.07569H24.4401C24.4401 4.41134 24.5335 4.66707 24.7048 4.84288ZM25.9504 2.68516C25.8258 2.54132 25.6079 2.4614 25.3432 2.4614C25.1719 2.4614 25.0162 2.49337 24.9072 2.5573C24.7826 2.62123 24.6892 2.70115 24.6269 2.78106C24.5491 2.87696 24.5024 2.97286 24.4868 3.06876C24.4557 3.16466 24.4401 3.26056 24.4401 3.34047H26.2462C26.1839 3.03679 26.0905 2.82901 25.9504 2.68516ZM30.201 5.7699C30.419 5.674 30.5747 5.51417 30.7148 5.29041H30.7304V5.81785H31.7736V0.159831H30.6681V2.22165H30.6526C30.528 2.01387 30.3567 1.87002 30.1387 1.77413C29.9208 1.66224 29.7028 1.61429 29.4537 1.61429C29.1578 1.61429 28.8931 1.67823 28.6752 1.79011C28.4572 1.90199 28.2703 2.06182 28.1146 2.25362C27.9745 2.44542 27.8499 2.66918 27.7721 2.92491C27.6942 3.18064 27.6631 3.45235 27.6631 3.72407C27.6631 4.01176 27.6942 4.28347 27.7721 4.55519C27.8499 4.81092 27.9589 5.05066 28.1146 5.25844C28.2548 5.46622 28.4572 5.62606 28.6752 5.73794C28.9087 5.8658 29.1734 5.91375 29.4692 5.91375C29.7495 5.91375 29.983 5.8658 30.201 5.7699ZM30.4969 2.86098C30.5747 2.98884 30.6214 3.11671 30.6526 3.27654C30.6837 3.43637 30.6993 3.5962 30.6993 3.75603C30.6993 3.93185 30.6837 4.09168 30.6526 4.25151C30.6214 4.41134 30.5747 4.55519 30.4969 4.66707C30.419 4.79493 30.3256 4.89083 30.201 4.97075C30.0765 5.05066 29.9208 5.08263 29.7495 5.08263C29.5782 5.08263 29.4225 5.05066 29.3135 4.97075C29.189 4.89083 29.0956 4.79493 29.0021 4.66707C28.9243 4.5392 28.862 4.39536 28.8309 4.23552C28.7997 4.07569 28.7842 3.91586 28.7842 3.75603C28.7842 3.58022 28.7997 3.42039 28.8309 3.27654C28.862 3.11671 28.9243 2.97286 28.9866 2.86098C29.0644 2.73311 29.1578 2.63721 29.2824 2.57328C29.4069 2.49337 29.5627 2.4614 29.7495 2.4614C29.9363 2.4614 30.0765 2.49337 30.201 2.57328C30.3256 2.63721 30.4346 2.73311 30.4969 2.86098ZM29.7806 24.2624C29.7806 31.7744 23.7706 37.88 16.3592 37.88C8.94788 37.88 2.93784 31.7904 2.93784 24.2624C2.93784 16.7503 8.94788 10.6448 16.3592 10.6448C23.7706 10.6448 29.7806 16.7343 29.7806 24.2624ZM16.3592 8.56695C7.82684 8.56695 0.898163 15.5835 0.898163 24.2464C0.898163 32.9092 7.81127 39.9258 16.3592 39.9258C24.8916 39.9258 31.8203 32.9092 31.8203 24.2464C31.8203 15.5835 24.8916 8.56695 16.3592 8.56695ZM9.89766 15.2958H16.297C17.854 15.2958 19.9092 15.2958 20.968 15.9511C22.1357 16.6544 23.0388 17.9331 23.0388 19.6912C23.0388 21.5932 22.0579 23.0317 20.423 23.703V23.7509C22.6028 24.1984 23.7862 25.8607 23.7862 28.0663C23.7862 30.7036 21.9333 33.2129 18.4301 33.2129H9.91323V15.2958H9.89766ZM12.2332 22.9997H16.9353C19.5978 22.9997 20.6877 22.0247 20.6877 20.1387C20.6877 17.6613 18.9594 17.3097 16.9353 17.3097H12.2332V22.9997ZM12.2332 31.199H18.1187C20.1428 31.199 21.4351 29.9524 21.4351 27.9864C21.4351 25.6529 19.5822 24.9976 17.6048 24.9976H12.2332V31.199ZM30.855 40.9807H30.8705C30.8861 40.9807 30.8861 40.9807 30.9017 40.9807H30.9172C30.9484 40.9807 30.9795 40.9647 31.0107 40.9647C31.0418 40.9487 31.0574 40.9328 31.0729 40.9168C31.0885 40.8848 31.0885 40.8528 31.0885 40.8209C31.0885 40.7889 31.0885 40.7569 31.0729 40.741C31.0574 40.725 31.0418 40.709 31.0262 40.693C31.0107 40.677 30.9795 40.677 30.9484 40.661C30.9172 40.661 30.9017 40.661 30.855 40.661H30.637V41.0127H30.8083C30.8238 40.9807 30.8394 40.9807 30.855 40.9807ZM30.8861 40.4852C31.0107 40.4852 31.1041 40.5172 31.1664 40.5651C31.2286 40.6131 31.2598 40.693 31.2598 40.8049C31.2598 40.9008 31.2287 40.9807 31.1819 41.0287C31.1352 41.0766 31.0574 41.0926 30.9795 41.1086L31.2909 41.5881H31.1041L30.8083 41.1245H30.637V41.5881H30.4657V40.5012L30.8861 40.4852ZM30.1387 41.3483C30.1699 41.4442 30.2322 41.5401 30.2944 41.604C30.3567 41.668 30.4346 41.7319 30.528 41.7799C30.6214 41.8118 30.7148 41.8438 30.8238 41.8438C30.9328 41.8438 31.0262 41.8278 31.1197 41.7799C31.2131 41.7319 31.2909 41.684 31.3532 41.604C31.4155 41.5401 31.4778 41.4442 31.5089 41.3483C31.5401 41.2524 31.5712 41.1405 31.5712 41.0287C31.5712 40.9168 31.5556 40.8049 31.5089 40.709C31.4778 40.6131 31.4155 40.5332 31.3532 40.4533C31.2754 40.3893 31.1975 40.3254 31.1197 40.2934C31.0262 40.2615 30.9328 40.2295 30.8238 40.2295C30.7148 40.2295 30.6214 40.2455 30.528 40.2934C30.4346 40.3414 30.3567 40.3893 30.2944 40.4533C30.2166 40.5172 30.1699 40.6131 30.1387 40.709C30.1076 40.8049 30.0765 40.9008 30.0765 41.0287C30.0765 41.1405 30.092 41.2524 30.1387 41.3483ZM29.983 40.661C30.0298 40.5492 30.092 40.4533 30.1855 40.3733C30.2633 40.2934 30.3723 40.2295 30.4813 40.1815C30.5903 40.1336 30.7148 40.1176 30.8394 40.1176C30.964 40.1176 31.0885 40.1336 31.1975 40.1815C31.3065 40.2295 31.3999 40.2934 31.4933 40.3733C31.5712 40.4533 31.649 40.5492 31.6958 40.661C31.7425 40.7729 31.7736 40.9008 31.7736 41.0287C31.7736 41.1565 31.758 41.2844 31.6958 41.3963C31.649 41.5081 31.5868 41.604 31.4933 41.6999C31.4155 41.7799 31.3065 41.8438 31.1975 41.8917C31.0885 41.9397 30.964 41.9557 30.8394 41.9557C30.7148 41.9557 30.5903 41.9397 30.4813 41.8917C30.3723 41.8438 30.2633 41.7799 30.1855 41.6999C30.1076 41.62 30.0298 41.5241 29.983 41.3963C29.9363 41.2844 29.9052 41.1565 29.9052 41.0287C29.9052 40.9008 29.9208 40.7729 29.983 40.661ZM31.7892 43.2343H0.929302V45.2961H31.7736V43.2343H31.7892ZM2.78214 48.6366C3.2181 48.6366 3.59179 48.9403 3.6385 49.3399H4.47928C4.37029 48.4128 3.65407 47.9014 2.78214 47.9014C1.56768 47.9014 0.851452 48.8284 0.851452 50.0112C0.851452 51.1619 1.56768 52.089 2.78214 52.089C3.74749 52.089 4.417 51.4496 4.51042 50.4587H3.66964C3.60735 50.9861 3.31152 51.3537 2.78214 51.3537C2.00364 51.3537 1.72338 50.6824 1.72338 50.0271C1.70781 49.3079 2.00364 48.6366 2.78214 48.6366ZM7.78013 50.5386C7.78013 49.6116 7.20404 49.0202 6.30097 49.0202C5.41348 49.0202 4.83739 49.6276 4.83739 50.5386C4.83739 51.4496 5.41348 52.057 6.30097 52.057C7.20404 52.057 7.78013 51.4656 7.78013 50.5386ZM7.00163 50.5386C7.00163 50.9861 6.84593 51.4656 6.31655 51.4656C5.78716 51.4656 5.63146 51.0021 5.63146 50.5386C5.63146 50.0751 5.78716 49.6116 6.31655 49.6116C6.84593 49.6116 7.00163 50.0751 7.00163 50.5386ZM8.2628 49.0841H9.01017V49.6276H9.02574C9.16587 49.26 9.55512 49.0202 9.9288 49.0202C9.97551 49.0202 10.0534 49.0362 10.1001 49.0522V49.7874C10.0222 49.7714 9.91323 49.7554 9.81981 49.7554C9.24372 49.7554 9.04131 50.171 9.04131 50.6824V51.9771H8.2628V49.0841ZM11.1433 49.1001H10.3959V53H11.1744V51.6255H11.19C11.3768 51.9131 11.7038 52.057 12.0463 52.057C12.8715 52.057 13.2919 51.3378 13.2919 50.5706C13.2919 49.7554 12.8871 49.0202 11.9996 49.0202C11.6415 49.0202 11.3457 49.1641 11.1588 49.4677H11.1433V49.1001ZM11.8439 49.6116C12.3422 49.6116 12.529 50.0911 12.529 50.5386C12.529 51.0021 12.3577 51.4496 11.8595 51.4496C11.3612 51.4496 11.1744 51.0021 11.1744 50.5386C11.1588 50.0751 11.3301 49.6116 11.8439 49.6116ZM15.0202 49.0202C15.9233 49.0202 16.4994 49.6276 16.4994 50.5386C16.4994 51.4496 15.9233 52.057 15.0202 52.057C14.1327 52.057 13.5566 51.4496 13.5566 50.5386C13.5411 49.6116 14.1172 49.0202 15.0202 49.0202ZM15.0202 51.4656C15.5496 51.4656 15.7209 51.0021 15.7209 50.5386C15.7209 50.0751 15.5652 49.6116 15.0202 49.6116C14.4908 49.6116 14.3351 50.0751 14.3351 50.5386C14.3196 51.0021 14.4908 51.4656 15.0202 51.4656ZM17.7138 49.0841H16.9665V51.9771H17.745V50.6824C17.745 50.171 17.9474 49.7554 18.5235 49.7554C18.6169 49.7554 18.7415 49.7714 18.8037 49.7874V49.0522C18.757 49.0362 18.6947 49.0202 18.6325 49.0202C18.2588 49.0202 17.8695 49.2759 17.7294 49.6276H17.7138V49.0841ZM19.0373 49.9792C19.084 49.228 19.7379 49.0202 20.3763 49.0202C20.9368 49.0202 21.6219 49.1481 21.6219 49.8353V51.3378C21.6219 51.5935 21.6531 51.8652 21.7153 51.9771H20.9213C20.8901 51.8812 20.8746 51.7853 20.8746 51.7054C20.6254 51.9611 20.2673 52.057 19.9248 52.057C19.3798 52.057 18.9594 51.7853 18.9594 51.1939C18.9594 50.5386 19.4421 50.3788 19.9248 50.3148C20.0026 50.2989 20.0961 50.2989 20.1739 50.2829C20.5476 50.2349 20.859 50.203 20.859 49.9312C20.859 49.5956 20.6254 49.5476 20.3607 49.5476C20.0649 49.5476 19.8781 49.6755 19.8469 49.9792H19.0373ZM20.8434 50.5706C20.75 50.6505 20.5632 50.6824 20.3763 50.7144C20.314 50.7304 20.2518 50.7304 20.1895 50.7464C19.9404 50.7943 19.7224 50.8742 19.7224 51.1779C19.7224 51.4656 19.9404 51.5455 20.205 51.5455C20.8123 51.5455 20.8434 51.0501 20.8434 50.8902V50.5706ZM23.7706 49.1001H23.1945V48.237H22.416V49.1001H21.9489V49.6276H22.416V51.3378C22.416 51.9132 22.8364 52.025 23.3191 52.025C23.4748 52.025 23.646 52.025 23.7706 51.9931V51.3697C23.6927 51.3857 23.6149 51.3857 23.5215 51.3857C23.2568 51.3857 23.1945 51.3218 23.1945 51.0501V49.6276H23.7706V49.1001ZM25.1408 48.6526H24.3623V47.9973H25.1408V48.6526ZM24.3623 49.1001H25.1408V51.9931H24.3623V49.1001ZM28.6129 50.5386C28.6129 49.6116 28.0368 49.0202 27.1337 49.0202C26.2462 49.0202 25.6701 49.6276 25.6701 50.5386C25.6701 51.4496 26.2462 52.057 27.1337 52.057C28.0368 52.057 28.6129 51.4656 28.6129 50.5386ZM27.8344 50.5386C27.8344 50.9861 27.6787 51.4656 27.1337 51.4656C26.6043 51.4656 26.4486 51.0021 26.4486 50.5386C26.4486 50.0751 26.6043 49.6116 27.1337 49.6116C27.6631 49.6116 27.8344 50.0751 27.8344 50.5386ZM29.1111 49.1001H29.8585V49.4997H29.8741C30.0765 49.18 30.419 49.0202 30.746 49.0202C31.5712 49.0202 31.7892 49.4997 31.7892 50.203V51.9771H31.0107V50.3468C31.0107 49.8673 30.8705 49.6435 30.5124 49.6435C30.092 49.6435 29.9052 49.8833 29.9052 50.4747V51.9931H29.1267V49.1001H29.1111Z" fill="#282828"/>
</svg>
