<svg width="45" height="76" viewBox="0 0 45 76" fill="none" xmlns="http://www.w3.org/2000/svg">
<path opacity="0.5" fill-rule="evenodd" clip-rule="evenodd" d="M5.58262 2.38359C5.46961 2.20024 5.3566 2.06273 5.19839 1.92521C5.04018 1.7877 4.85937 1.69602 4.65595 1.62726C4.45254 1.5585 4.24912 1.51267 4.0231 1.51267C3.61627 1.51267 3.27725 1.58142 3.00603 1.74186C2.73481 1.90229 2.50879 2.10857 2.32798 2.36068C2.14716 2.61279 2.03416 2.91074 1.94375 3.25452C1.87594 3.57539 1.83074 3.91918 1.83074 4.28589C1.83074 4.62967 1.87594 4.95054 1.94375 5.27141C2.01155 5.59228 2.14716 5.89023 2.32798 6.14234C2.50879 6.39445 2.73481 6.60072 3.00603 6.76116C3.27725 6.92159 3.61627 6.99035 4.0231 6.99035C4.56555 6.99035 4.99498 6.82992 5.2888 6.48613C5.60522 6.14234 5.78604 5.70688 5.85384 5.15682H7.57157C7.52637 5.66104 7.41336 6.11942 7.20994 6.53197C7.02913 6.94451 6.78051 7.2883 6.46409 7.58625C6.14767 7.8842 5.78604 8.09047 5.37921 8.25091C4.97238 8.41134 4.49774 8.4801 4.0005 8.4801C3.39026 8.4801 2.82521 8.3655 2.32798 8.15923C1.83074 7.95295 1.42391 7.65501 1.06228 7.26538C0.723254 6.89867 0.452033 6.44029 0.27122 5.93607C0.0904061 5.43185 0 4.88178 0 4.28589C0 3.68999 0.0904061 3.11701 0.27122 2.58987C0.452033 2.06273 0.723254 1.62726 1.06228 1.23764C1.40131 0.84801 1.83074 0.550061 2.32798 0.320869C2.82521 0.0916771 3.36765 0 4.0005 0C4.45254 0 4.85937 0.0687574 5.2662 0.183353C5.65043 0.320868 6.01205 0.504222 6.32848 0.756333C6.6449 1.00844 6.89352 1.30639 7.09693 1.6731C7.30035 2.03981 7.43596 2.45235 7.48117 2.91074H5.76344C5.76344 2.7503 5.69563 2.56695 5.58262 2.38359ZM9.89955 6.94451C10.1482 7.1737 10.4872 7.2883 10.9392 7.2883C11.2556 7.2883 11.5495 7.21954 11.7755 7.03619C12.0015 6.87575 12.1597 6.6924 12.2049 6.50905H13.6288C13.4028 7.21954 13.0412 7.72376 12.5892 8.02171C12.1145 8.31966 11.5495 8.4801 10.894 8.4801C10.442 8.4801 10.0126 8.41134 9.65093 8.25091C9.2893 8.09047 8.97288 7.8842 8.70166 7.63209C8.45304 7.35706 8.24962 7.03619 8.11401 6.64656C7.9784 6.27986 7.9106 5.84439 7.9106 5.40893C7.9106 4.97346 7.9784 4.56092 8.11401 4.19421C8.24962 3.8275 8.45304 3.48372 8.72426 3.20869C8.99548 2.93365 9.3119 2.70446 9.67353 2.56695C10.0352 2.40651 10.442 2.33776 10.894 2.33776C11.3913 2.33776 11.8207 2.42943 12.2049 2.63571C12.5665 2.84198 12.883 3.09409 13.109 3.41496C13.335 3.73583 13.5158 4.10253 13.6288 4.538C13.7418 4.95054 13.7644 5.38601 13.7418 5.84439H9.51532C9.53792 6.32569 9.67353 6.6924 9.89955 6.94451ZM11.7303 3.85042C11.5269 3.64415 11.233 3.52955 10.8488 3.52955C10.6002 3.52955 10.3742 3.57539 10.216 3.66707C10.0352 3.75875 9.89955 3.87334 9.80914 3.98794C9.69613 4.12545 9.62833 4.26297 9.60573 4.40048C9.56052 4.538 9.53792 4.67551 9.53792 4.79011H12.1597C12.0467 4.35464 11.9111 4.0567 11.7303 3.85042ZM16.002 3.55247V2.45235H14.4877V8.34258H16.0924V5.70688C16.0924 5.43185 16.115 5.20265 16.1602 4.97346C16.2054 4.74427 16.2958 4.538 16.4314 4.37756C16.5671 4.19421 16.7253 4.07961 16.9287 3.96502C17.1321 3.87334 17.3807 3.80458 17.6745 3.80458C17.7649 3.80458 17.8553 3.80458 17.9684 3.8275H17.991C18.104 3.8275 18.1944 3.85042 18.2622 3.87334V2.38359C18.1266 2.33776 18.0136 2.33776 17.9006 2.33776C17.6971 2.33776 17.4937 2.36068 17.3129 2.42943C17.1321 2.49819 16.9513 2.58987 16.7705 2.68154C16.6123 2.79614 16.454 2.93366 16.3184 3.07117C16.1828 3.2316 16.0924 3.39204 16.002 3.57539V3.55247ZM22.5565 2.47527V3.55247H21.3812V6.46321C21.3812 6.73824 21.4264 6.92159 21.5168 7.01327C21.6072 7.10495 21.788 7.15078 22.0593 7.15078C22.1497 7.15078 22.2401 7.15078 22.3305 7.15078C22.4209 7.15078 22.4887 7.12786 22.5565 7.12786V8.3655C22.4209 8.38842 22.2627 8.41134 22.1045 8.41134C21.9463 8.41134 21.7654 8.43426 21.6072 8.43426C21.3586 8.43426 21.11 8.41134 20.9066 8.38842C20.6806 8.3655 20.4771 8.29674 20.3189 8.18215C20.1381 8.09047 20.0251 7.95296 19.9121 7.7696C19.8217 7.58625 19.7539 7.35706 19.7539 7.05911V3.55247H18.782V2.47527H19.7539V0.710494H21.3586V2.47527H22.5565ZM23.4832 0.229192V1.5585H25.0879V0.229192H23.4832ZM25.1105 8.34258V2.47527H23.5058V8.34258H25.1105ZM25.7433 3.55247V2.47527H26.7152V2.01689C26.7152 1.48975 26.8734 1.0772 27.2125 0.733414C27.5289 0.389626 28.0261 0.229192 28.6816 0.229192C28.8172 0.229192 28.9754 0.229191 29.111 0.252111C29.1562 0.252111 29.224 0.252111 29.2692 0.252111C29.3596 0.252111 29.45 0.27503 29.5404 0.27503V1.48975C29.3596 1.46683 29.1562 1.46683 28.9528 1.46683C28.7268 1.46683 28.5686 1.51267 28.4782 1.62726C28.3877 1.71894 28.3425 1.90229 28.3425 2.1544V2.49819H29.45V3.55247H28.3425V8.34258H26.7378V3.55247H25.7433ZM30.5123 0.229192V1.5585H32.117V0.229192H30.5123ZM32.117 8.34258V2.47527H30.5123V8.34258H32.117ZM34.671 6.94451C34.9196 7.1737 35.2587 7.2883 35.7107 7.2883C36.0271 7.2883 36.3209 7.21954 36.547 7.03619C36.773 6.87575 36.9312 6.6924 36.9764 6.50905H38.4003C38.1743 7.21954 37.8127 7.72376 37.3606 8.02171C36.886 8.31966 36.3209 8.4801 35.6655 8.4801C35.2135 8.4801 34.784 8.41134 34.4224 8.25091C34.0608 8.09047 33.7443 7.8842 33.4731 7.63209C33.2245 7.35706 33.0211 7.03619 32.8855 6.64656C32.7499 6.27986 32.6821 5.84439 32.6821 5.40893C32.6821 4.97346 32.7499 4.56092 32.8855 4.19421C33.0211 3.8275 33.2245 3.48372 33.4957 3.20869C33.767 2.93365 34.0834 2.70446 34.445 2.56695C34.8066 2.40651 35.2135 2.33776 35.6655 2.33776C36.1627 2.33776 36.5922 2.42943 36.9764 2.63571C37.338 2.84198 37.6544 3.09409 37.8805 3.41496C38.1065 3.73583 38.2873 4.10253 38.4003 4.538C38.5133 4.95054 38.5359 5.38601 38.5133 5.84439H34.2868C34.2868 6.32569 34.4224 6.6924 34.671 6.94451ZM36.4792 3.85042C36.2983 3.64415 35.9819 3.52955 35.5977 3.52955C35.3491 3.52955 35.1231 3.57539 34.9648 3.66707C34.784 3.75875 34.6484 3.87334 34.558 3.98794C34.445 4.12545 34.3772 4.26297 34.3546 4.40048C34.3094 4.538 34.2868 4.67551 34.2868 4.79011H36.9086C36.8182 4.35464 36.6826 4.0567 36.4792 3.85042ZM42.6494 8.27382C42.9658 8.13631 43.1919 7.90712 43.3953 7.58625H43.4179V8.34258H44.9322V0.229192H43.3275V3.18577H43.3049C43.1241 2.88782 42.8754 2.68154 42.559 2.54403C42.2426 2.38359 41.9262 2.31484 41.5645 2.31484C41.1351 2.31484 40.7509 2.40651 40.4345 2.56695C40.118 2.72738 39.8468 2.95657 39.6208 3.2316C39.4174 3.50663 39.2366 3.8275 39.1236 4.19421C39.0105 4.56092 38.9653 4.95054 38.9653 5.34017C38.9653 5.75271 39.0105 6.14234 39.1236 6.53197C39.2366 6.89867 39.3948 7.24246 39.6208 7.54041C39.8242 7.83836 40.118 8.06755 40.4345 8.22799C40.7735 8.41134 41.1577 8.4801 41.5871 8.4801C41.994 8.4801 42.333 8.41134 42.6494 8.27382ZM43.0789 4.10253C43.1919 4.28589 43.2597 4.46924 43.3049 4.69843C43.3501 4.92762 43.3727 5.15682 43.3727 5.38601C43.3727 5.63812 43.3501 5.86731 43.3049 6.0965C43.2597 6.32569 43.1919 6.53197 43.0789 6.6924C42.9658 6.87575 42.8302 7.01327 42.6494 7.12786C42.4686 7.24246 42.2426 7.2883 41.994 7.2883C41.7454 7.2883 41.5193 7.24246 41.3611 7.12786C41.1803 7.01327 41.0447 6.87575 40.9091 6.6924C40.7961 6.50905 40.7057 6.30277 40.6605 6.07358C40.6153 5.84439 40.5927 5.6152 40.5927 5.38601C40.5927 5.1339 40.6153 4.9047 40.6605 4.69843C40.7057 4.46924 40.7961 4.26297 40.8865 4.10253C40.9995 3.91918 41.1351 3.78166 41.3159 3.68999C41.4967 3.57539 41.7227 3.52955 41.994 3.52955C42.2652 3.52955 42.4686 3.57539 42.6494 3.68999C42.8302 3.78166 42.9884 3.91918 43.0789 4.10253ZM42.0392 34.7913C42.0392 45.5633 33.3149 54.3185 22.5565 54.3185C11.7981 54.3185 3.07383 45.5863 3.07383 34.7913C3.07383 24.0193 11.7981 15.2642 22.5565 15.2642C33.3149 15.2642 42.0392 23.9964 42.0392 34.7913ZM22.5565 12.2847C10.1708 12.2847 0.113009 22.3462 0.113009 34.7684C0.113009 47.1906 10.1482 57.2521 22.5565 57.2521C34.9422 57.2521 45 47.1906 45 34.7684C45 22.3462 34.9422 12.2847 22.5565 12.2847ZM13.1768 21.9337H22.4661C24.7263 21.9337 27.7097 21.9337 29.2466 22.8733C30.9417 23.8818 32.2526 25.7153 32.2526 28.2364C32.2526 30.9638 30.8287 33.0265 28.4555 33.9891V34.0579C31.6198 34.6996 33.3375 37.0832 33.3375 40.2461C33.3375 44.0277 30.6479 47.6261 25.5625 47.6261H13.1994V21.9337H13.1768ZM16.567 32.9807H23.3928C27.2577 32.9807 28.8398 31.5826 28.8398 28.8782C28.8398 25.3257 26.331 24.8215 23.3928 24.8215H16.567V32.9807ZM16.567 44.7382H25.1105C28.0487 44.7382 29.9247 42.9505 29.9247 40.1315C29.9247 36.7853 27.2351 35.8456 24.3646 35.8456H16.567V44.7382ZM43.5987 58.7648H43.6213C43.6439 58.7648 43.6439 58.7648 43.6665 58.7648H43.6891C43.7343 58.7648 43.7795 58.7419 43.8247 58.7419C43.8699 58.7189 43.8925 58.696 43.9151 58.6731C43.9377 58.6273 43.9377 58.5814 43.9377 58.5356C43.9377 58.4897 43.9377 58.4439 43.9151 58.421C43.8925 58.3981 43.8699 58.3752 43.8473 58.3522C43.8247 58.3293 43.7795 58.3293 43.7343 58.3064C43.6891 58.3064 43.6665 58.3064 43.5987 58.3064H43.2823V58.8106H43.5309C43.5535 58.7648 43.5761 58.7648 43.5987 58.7648ZM43.6439 58.0543C43.8247 58.0543 43.9603 58.1001 44.0507 58.1689C44.1411 58.2376 44.1863 58.3522 44.1863 58.5127C44.1863 58.6502 44.1411 58.7648 44.0733 58.8335C44.0055 58.9023 43.8925 58.9252 43.7795 58.9481L44.2315 59.6357H43.9603L43.5309 58.971H43.2823V59.6357H43.0336V58.0772L43.6439 58.0543ZM42.559 59.2919C42.6042 59.4294 42.6946 59.5669 42.785 59.6586C42.8754 59.7503 42.9884 59.842 43.1241 59.9107C43.2597 59.9566 43.3953 60.0024 43.5535 60.0024C43.7117 60.0024 43.8473 59.9795 43.9829 59.9107C44.1185 59.842 44.2315 59.7732 44.3219 59.6586C44.4124 59.5669 44.5028 59.4294 44.548 59.2919C44.5932 59.1544 44.6384 58.994 44.6384 58.8335C44.6384 58.6731 44.6158 58.5127 44.548 58.3752C44.5028 58.2376 44.4124 58.123 44.3219 58.0084C44.2089 57.9168 44.0959 57.8251 43.9829 57.7793C43.8473 57.7334 43.7117 57.6876 43.5535 57.6876C43.3953 57.6876 43.2597 57.7105 43.1241 57.7793C42.9884 57.848 42.8754 57.9168 42.785 58.0084C42.672 58.1001 42.6042 58.2376 42.559 58.3752C42.5138 58.5127 42.4686 58.6502 42.4686 58.8335C42.4686 58.994 42.4912 59.1544 42.559 59.2919ZM42.333 58.3064C42.4008 58.146 42.4912 58.0084 42.6268 57.8938C42.7398 57.7793 42.898 57.6876 43.0563 57.6188C43.2145 57.5501 43.3953 57.5271 43.5761 57.5271C43.7569 57.5271 43.9377 57.5501 44.0959 57.6188C44.2541 57.6876 44.3898 57.7793 44.5254 57.8938C44.6384 58.0084 44.7514 58.146 44.8192 58.3064C44.887 58.4668 44.9322 58.6502 44.9322 58.8335C44.9322 59.0169 44.9096 59.2002 44.8192 59.3607C44.7514 59.5211 44.661 59.6586 44.5254 59.7961C44.4124 59.9107 44.2541 60.0024 44.0959 60.0712C43.9377 60.1399 43.7569 60.1628 43.5761 60.1628C43.3953 60.1628 43.2145 60.1399 43.0563 60.0712C42.898 60.0024 42.7398 59.9107 42.6268 59.7961C42.5138 59.6815 42.4008 59.544 42.333 59.3607C42.2652 59.2002 42.22 59.0169 42.22 58.8335C42.22 58.6502 42.2426 58.4668 42.333 58.3064ZM44.9548 61.9964H0.158211V64.9529H44.9322V61.9964H44.9548ZM2.84782 69.7431C3.48066 69.7431 4.02311 70.1785 4.09091 70.7515H5.3114C5.15319 69.4222 4.11351 68.6888 2.84782 68.6888C1.08488 68.6888 0.0452027 70.0181 0.0452027 71.7141C0.0452027 73.3643 1.08488 74.6936 2.84782 74.6936C4.24912 74.6936 5.22099 73.7768 5.3566 72.3559H4.13611C4.04571 73.1122 3.61627 73.6393 2.84782 73.6393C1.71773 73.6393 1.3109 72.6767 1.3109 71.737C1.2883 70.7057 1.71773 69.7431 2.84782 69.7431ZM10.103 72.4705C10.103 71.1411 9.2667 70.2931 7.9558 70.2931C6.6675 70.2931 5.83124 71.1641 5.83124 72.4705C5.83124 73.7768 6.6675 74.6478 7.9558 74.6478C9.2667 74.6478 10.103 73.7998 10.103 72.4705ZM8.97288 72.4705C8.97288 73.1122 8.74686 73.7998 7.9784 73.7998C7.20995 73.7998 6.98393 73.1351 6.98393 72.4705C6.98393 71.8058 7.20995 71.1411 7.9784 71.1411C8.74686 71.1411 8.97288 71.8058 8.97288 72.4705ZM10.8036 70.3848H11.8885V71.1641H11.9111C12.1145 70.6369 12.6796 70.2931 13.222 70.2931C13.2898 70.2931 13.4028 70.316 13.4706 70.339V71.3932C13.3576 71.3703 13.1994 71.3474 13.0638 71.3474C12.2275 71.3474 11.9337 71.9433 11.9337 72.6767V74.5332H10.8036V70.3848ZM14.9849 70.4077H13.9001V76H15.0301V74.029H15.0527C15.324 74.4415 15.7986 74.6478 16.2958 74.6478C17.4937 74.6478 18.104 73.6164 18.104 72.5163C18.104 71.3474 17.5163 70.2931 16.228 70.2931C15.7082 70.2931 15.2788 70.4994 15.0075 70.9349H14.9849V70.4077ZM16.002 71.1411C16.7253 71.1411 16.9965 71.8287 16.9965 72.4705C16.9965 73.1351 16.7479 73.7768 16.0246 73.7768C15.3014 73.7768 15.0301 73.1351 15.0301 72.4705C15.0075 71.8058 15.2562 71.1411 16.002 71.1411ZM20.6128 70.2931C21.9237 70.2931 22.7599 71.1641 22.7599 72.4705C22.7599 73.7768 21.9237 74.6478 20.6128 74.6478C19.3245 74.6478 18.4882 73.7768 18.4882 72.4705C18.4656 71.1411 19.3019 70.2931 20.6128 70.2931ZM20.6128 73.7998C21.3812 73.7998 21.6298 73.1351 21.6298 72.4705C21.6298 71.8058 21.4038 71.1411 20.6128 71.1411C19.8443 71.1411 19.6183 71.8058 19.6183 72.4705C19.5957 73.1351 19.8443 73.7998 20.6128 73.7998ZM24.5229 70.3848H23.438V74.5332H24.5681V72.6767C24.5681 71.9433 24.8619 71.3474 25.6981 71.3474C25.8338 71.3474 26.0146 71.3703 26.105 71.3932V70.339C26.0372 70.316 25.9468 70.2931 25.8564 70.2931C25.3139 70.2931 24.7489 70.6598 24.5455 71.1641H24.5229V70.3848ZM26.444 71.6683C26.5118 70.5911 27.4611 70.2931 28.3877 70.2931C29.2014 70.2931 30.1959 70.4765 30.1959 71.462V73.6164C30.1959 73.9831 30.2411 74.3727 30.3315 74.5332H29.1788C29.1336 74.3957 29.111 74.2581 29.111 74.1435C28.7494 74.5103 28.2295 74.6478 27.7323 74.6478C26.9412 74.6478 26.331 74.2581 26.331 73.4101C26.331 72.4704 27.0316 72.2413 27.7323 72.1496C27.8453 72.1267 27.9809 72.1267 28.0939 72.1037C28.6364 72.035 29.0884 71.9891 29.0884 71.5995C29.0884 71.1182 28.7494 71.0495 28.3651 71.0495C27.9357 71.0495 27.6645 71.2328 27.6193 71.6683H26.444ZM29.0658 72.5163C28.9302 72.6309 28.659 72.6767 28.3877 72.7226C28.2973 72.7455 28.2069 72.7455 28.1165 72.7684C27.7549 72.8372 27.4385 72.9518 27.4385 73.3872C27.4385 73.7998 27.7549 73.9144 28.1391 73.9144C29.0206 73.9144 29.0658 73.2039 29.0658 72.9747V72.5163ZM33.3149 70.4077H32.4787V69.1701H31.3486V70.4077H30.6705V71.1641H31.3486V73.6164C31.3486 74.4415 31.9588 74.6019 32.6595 74.6019C32.8855 74.6019 33.1341 74.6019 33.3149 74.5561V73.6622C33.2019 73.6852 33.0889 73.6852 32.9533 73.6852C32.5691 73.6852 32.4787 73.5935 32.4787 73.2039V71.1641H33.3149V70.4077ZM35.3039 69.766H34.1738V68.8263H35.3039V69.766ZM34.1738 70.4077H35.3039V74.5561H34.1738V70.4077ZM40.344 72.4705C40.344 71.1411 39.5078 70.2931 38.1969 70.2931C36.9086 70.2931 36.0723 71.1641 36.0723 72.4705C36.0723 73.7768 36.9086 74.6478 38.1969 74.6478C39.5078 74.6478 40.344 73.7998 40.344 72.4705ZM39.214 72.4705C39.214 73.1122 38.9879 73.7998 38.1969 73.7998C37.4284 73.7998 37.2024 73.1351 37.2024 72.4705C37.2024 71.8058 37.4284 71.1411 38.1969 71.1411C38.9653 71.1411 39.214 71.8058 39.214 72.4705ZM41.0673 70.4077H42.1522V70.9807H42.1748C42.4686 70.5223 42.9658 70.2931 43.4405 70.2931C44.6384 70.2931 44.9548 70.9807 44.9548 71.9891V74.5332H43.8247V72.1954C43.8247 71.5078 43.6213 71.187 43.1015 71.187C42.4912 71.187 42.22 71.5308 42.22 72.3788V74.5561H41.0899V70.4077H41.0673Z" fill="#5F6980"/>
</svg>
